<?xml version="1.0" standalone="no"?>
<!DOCTYPE svg PUBLIC "-//W3C//DTD SVG 20010904//EN"
 "http://www.w3.org/TR/2001/REC-SVG-20010904/DTD/svg10.dtd">
<svg version="1.0" xmlns="http://www.w3.org/2000/svg"
 width="600.000000pt" height="600.000000pt" viewBox="0 0 600.000000 600.000000"
 preserveAspectRatio="xMidYMid meet">
<metadata>
Created by potrace 1.11, written by Peter Selinger 2001-2013
</metadata>
<g transform="translate(0.000000,600.000000) scale(0.100000,-0.100000)"
fill="#000000" stroke="none">
<path d="M2996 5979 c2 -4 -1 -9 -6 -11 -6 -2 -12 -13 -13 -26 0 -12 -5 -22
-10 -22 -5 0 -4 -6 2 -13 8 -11 6 -18 -9 -32 -11 -10 -17 -22 -14 -27 3 -5 0
-16 -8 -25 -11 -14 -11 -16 2 -8 13 8 13 7 1 -8 -7 -9 -10 -17 -5 -17 5 0 2
-4 -6 -10 -8 -5 -15 -24 -16 -42 -3 -49 -3 -50 -14 -43 -7 4 -9 -3 -6 -19 3
-14 0 -26 -5 -26 -6 0 -7 -4 -4 -10 3 -5 1 -10 -5 -10 -7 0 -10 -7 -6 -15 3
-8 0 -15 -7 -15 -8 0 -6 -4 3 -10 13 -9 8 -14 -11 -12 -4 1 -4 -8 -1 -20 3
-13 1 -19 -5 -15 -6 4 -9 -4 -7 -18 1 -14 -3 -25 -9 -25 -7 0 -5 -5 3 -10 10
-6 11 -10 3 -10 -7 0 -13 -7 -13 -16 0 -9 -5 -12 -12 -8 -10 5 -10 4 -1 -6 14
-15 5 -43 -11 -33 -6 4 -4 -2 4 -12 8 -10 10 -16 4 -12 -7 4 -14 0 -18 -8 -3
-8 0 -15 7 -15 7 0 3 -7 -7 -15 -11 -9 -14 -15 -7 -15 9 0 8 -5 -3 -16 -19
-19 -21 -28 -3 -18 8 6 8 3 -1 -9 -8 -9 -11 -21 -7 -27 3 -5 -2 -10 -12 -10
-15 0 -16 -2 -3 -10 8 -5 10 -10 5 -10 -6 0 -12 -10 -12 -22 -1 -13 -7 -24
-13 -26 -5 -2 -10 -8 -10 -13 0 -6 6 -7 13 -3 8 6 8 3 -1 -9 -8 -9 -11 -20 -8
-26 3 -5 -1 -11 -9 -15 -8 -3 -12 -12 -9 -21 3 -8 2 -15 -4 -15 -6 0 -8 -10
-4 -22 3 -12 1 -19 -4 -15 -6 3 -11 -6 -12 -21 -1 -14 -7 -29 -13 -33 -8 -5
-8 -8 0 -13 6 -4 9 -12 5 -17 -3 -5 -9 -7 -14 -4 -4 3 -6 -5 -2 -17 4 -15 2
-19 -7 -13 -10 6 -11 3 -2 -13 8 -15 8 -23 -1 -28 -7 -5 -8 -3 -3 7 5 8 4 11
-1 6 -5 -5 -9 -18 -9 -30 -1 -12 -6 -21 -13 -20 -7 2 -12 -1 -12 -6 0 -5 -7
-12 -16 -15 -10 -4 -13 -2 -8 7 6 9 5 9 -8 0 -8 -7 -18 -10 -21 -6 -4 3 -7 0
-7 -8 0 -12 -2 -12 -10 1 -8 12 -10 12 -16 -3 -5 -14 -9 -15 -20 -6 -11 9 -18
8 -29 -1 -8 -6 -20 -8 -26 -4 -9 5 -10 2 -5 -11 5 -15 4 -16 -9 -5 -11 9 -15
9 -15 1 0 -7 -4 -10 -9 -6 -5 3 -12 1 -16 -5 -9 -15 -27 -12 -20 3 4 6 -2 3
-12 -8 -11 -12 -27 -19 -42 -17 -17 3 -21 0 -15 -10 5 -9 2 -8 -11 2 -11 9
-16 10 -11 3 4 -7 2 -14 -3 -14 -6 -1 -15 -3 -21 -4 -5 -1 -17 -3 -25 -4 -8 0
-15 -6 -15 -12 0 -5 5 -7 12 -3 7 4 8 3 4 -4 -5 -9 -13 -9 -27 -2 -13 8 -19 7
-19 0 0 -6 -4 -8 -10 -5 -5 3 -10 1 -10 -4 0 -6 -12 -11 -26 -11 -17 0 -23 -4
-18 -12 5 -8 2 -9 -9 -5 -10 4 -17 2 -17 -4 0 -6 -9 -9 -19 -6 -14 3 -18 1
-14 -9 3 -9 -2 -12 -16 -9 -12 2 -19 0 -16 -5 6 -9 -49 -40 -72 -40 -7 0 -13
-4 -13 -9 0 -5 -13 -14 -30 -20 -16 -5 -30 -15 -30 -21 0 -6 -4 -8 -10 -5 -5
3 -10 1 -10 -5 0 -7 -7 -9 -16 -6 -8 3 -13 2 -11 -2 2 -4 -8 -18 -21 -31 -21
-19 -24 -20 -19 -5 7 18 6 18 -6 2 -8 -10 -17 -15 -20 -11 -4 3 -7 -1 -7 -10
0 -9 -7 -17 -16 -17 -8 0 -13 -4 -9 -9 3 -6 -3 -8 -15 -6 -11 2 -19 -1 -17 -8
1 -7 -3 -11 -10 -10 -8 2 -10 -4 -6 -14 5 -13 2 -15 -11 -10 -11 5 -15 3 -10
-5 5 -8 2 -9 -9 -5 -10 3 -17 3 -17 -2 0 -14 -42 -56 -52 -53 -6 2 -8 -5 -4
-14 4 -12 2 -15 -9 -10 -9 3 -20 -4 -29 -22 -8 -15 -18 -27 -23 -27 -4 0 -7
-3 -5 -7 1 -5 -5 -8 -13 -8 -8 0 -14 -6 -13 -12 2 -7 -3 -12 -11 -10 -9 2 -11
-3 -7 -15 4 -9 4 -14 0 -11 -3 4 -24 -11 -46 -33 -22 -22 -38 -42 -35 -46 7
-7 -16 -32 -25 -27 -4 2 -9 -5 -13 -16 -3 -11 -11 -20 -16 -20 -5 0 -9 -7 -9
-15 0 -8 -7 -15 -16 -15 -14 0 -14 -3 -4 -15 11 -13 10 -14 -5 -9 -13 5 -16 4
-11 -4 4 -7 2 -12 -4 -12 -6 0 -9 -4 -5 -9 3 -6 -4 -15 -16 -22 -17 -9 -19
-13 -8 -20 11 -7 10 -9 -3 -9 -16 0 -23 -11 -19 -32 0 -5 -6 -8 -15 -8 -8 0
-12 -4 -9 -10 3 -5 1 -10 -5 -10 -6 0 -9 -4 -6 -8 3 -5 -4 -19 -14 -30 -11
-12 -19 -27 -18 -34 2 -7 -3 -13 -9 -14 -7 -1 -16 -2 -19 -3 -4 0 -2 -7 4 -13
11 -15 -10 -42 -24 -30 -5 4 -3 0 3 -8 8 -11 8 -18 -2 -27 -7 -6 -15 -10 -17
-8 -2 3 -4 -8 -4 -23 1 -19 -3 -26 -14 -24 -8 2 -12 0 -8 -4 4 -4 2 -14 -5
-22 -9 -13 -9 -14 0 -8 19 10 16 2 -7 -24 -14 -16 -17 -26 -9 -31 8 -4 6 -10
-5 -16 -9 -5 -18 -23 -19 -41 -1 -18 -6 -32 -12 -32 -5 0 -11 -17 -12 -38 -1
-20 -11 -55 -21 -77 -16 -31 -18 -44 -9 -60 9 -17 8 -18 -4 -8 -12 10 -14 6
-12 -28 1 -22 -3 -39 -9 -39 -6 0 -8 -11 -6 -25 3 -14 2 -25 -1 -25 -4 0 -7
-19 -7 -42 0 -25 -4 -42 -10 -41 -12 2 -12 -26 1 -46 5 -10 4 -12 -3 -7 -7 4
-12 1 -12 -9 0 -9 4 -14 9 -11 5 4 7 -3 4 -14 -3 -11 -10 -17 -16 -13 -6 4 -7
1 -2 -7 11 -18 11 -102 0 -119 -4 -8 -3 -16 4 -21 18 -10 -12 -32 -51 -36 -17
-2 -36 -8 -42 -12 -6 -5 -24 -8 -39 -7 -15 1 -30 -2 -33 -7 -3 -4 -10 -8 -15
-8 -6 0 -7 6 -3 13 5 8 2 8 -9 -2 -9 -7 -17 -10 -17 -6 0 4 -7 2 -15 -5 -8 -6
-19 -9 -25 -5 -5 3 -10 2 -10 -3 0 -5 -10 -8 -23 -7 -12 1 -28 -2 -34 -7 -20
-16 -95 -21 -88 -6 4 7 0 5 -8 -4 -8 -10 -17 -15 -20 -11 -4 3 -7 0 -7 -8 0
-11 -2 -11 -10 1 -7 11 -10 11 -10 2 0 -7 -5 -10 -10 -7 -6 4 -18 1 -27 -7 -9
-7 -14 -8 -10 -2 8 14 -25 14 -34 0 -4 -5 -22 -10 -41 -10 -18 -1 -39 -5 -46
-10 -6 -4 -17 -4 -22 -1 -6 3 -10 1 -10 -6 0 -9 -3 -9 -14 0 -11 9 -17 9 -28
-1 -7 -7 -18 -14 -23 -14 -6 -1 -20 -5 -32 -9 -16 -4 -22 -2 -20 7 2 7 2 10 0
5 -3 -4 -9 -5 -14 -1 -5 3 -8 0 -7 -8 2 -9 -7 -13 -29 -12 -18 1 -31 -2 -28
-6 3 -5 -5 -6 -17 -2 -16 4 -19 2 -13 -9 8 -12 6 -12 -8 0 -15 12 -17 11 -17
-3 0 -9 -5 -16 -11 -16 -5 0 -7 5 -3 12 5 7 3 8 -5 4 -9 -6 -8 -13 6 -26 10
-9 21 -16 26 -13 4 2 7 -3 7 -11 0 -9 7 -16 16 -16 8 0 13 -3 11 -7 -6 -10 19
-34 27 -26 3 4 6 -1 6 -10 0 -9 7 -17 16 -17 10 0 14 -5 10 -16 -3 -8 -2 -12
4 -9 6 3 10 1 10 -4 0 -6 7 -11 16 -11 8 0 12 -4 9 -10 -3 -5 1 -10 10 -10 9
0 13 -5 10 -10 -3 -5 -1 -10 5 -10 6 0 8 -4 5 -10 -3 -6 1 -7 9 -4 10 4 16 1
16 -8 0 -7 9 -20 19 -28 11 -7 17 -18 14 -24 -4 -6 0 -5 9 2 13 10 17 8 28
-18 7 -16 18 -30 25 -30 7 0 19 -8 26 -17 12 -16 12 -17 -1 -8 -10 6 -9 4 2
-6 9 -9 14 -20 10 -25 -4 -5 0 -3 8 3 8 7 31 13 52 13 24 0 38 5 38 13 0 8 4
7 10 -3 9 -13 10 -13 10 0 0 12 2 13 9 1 5 -8 10 -9 12 -2 2 6 25 12 51 13 25
2 44 7 40 12 -3 5 5 7 16 4 12 -4 22 -3 22 1 0 9 31 8 48 -2 8 -5 10 -3 6 6
-3 8 0 18 7 23 8 5 10 3 4 -6 -6 -9 -2 -10 16 -5 12 4 35 8 49 9 15 1 35 7 44
15 14 12 16 12 10 -5 -5 -17 -4 -17 8 -4 7 9 20 15 28 15 8 -1 22 2 31 6 9 5
21 3 26 -2 8 -8 13 -7 18 2 6 8 4 10 -5 4 -8 -5 -11 -4 -6 3 4 6 13 9 21 6 7
-3 23 0 35 6 18 9 21 9 15 0 -4 -7 -1 -16 6 -21 11 -7 11 -9 1 -9 -7 0 -10 -5
-7 -10 4 -6 10 -8 15 -5 4 3 7 -6 5 -20 -1 -14 3 -25 9 -25 6 0 4 -5 -4 -10
-9 -6 -11 -10 -3 -10 7 0 10 -6 7 -14 -3 -8 0 -17 7 -22 8 -5 10 -3 4 6 -5 8
-4 11 3 6 7 -4 8 -17 2 -36 -6 -20 -5 -29 2 -27 11 2 31 -53 23 -61 -2 -2 3
-11 11 -19 8 -9 13 -22 10 -29 -3 -8 -1 -14 4 -14 6 0 10 -7 10 -16 0 -9 5
-12 13 -8 9 5 9 4 0 -6 -9 -10 -7 -17 8 -33 11 -12 17 -27 15 -34 -3 -7 -1
-13 5 -13 6 0 9 -6 6 -14 -3 -8 3 -23 13 -34 10 -11 16 -23 13 -26 -4 -3 -1
-6 6 -6 7 0 9 -4 6 -10 -3 -5 -1 -10 4 -10 6 0 11 -9 11 -20 0 -11 3 -20 8
-20 4 0 16 -12 26 -27 11 -14 14 -23 8 -19 -8 5 -10 2 -6 -8 3 -9 10 -13 15
-10 5 3 9 0 9 -5 0 -19 3 -25 22 -45 10 -11 18 -26 18 -33 0 -8 5 -11 10 -8 6
3 10 -1 10 -10 0 -9 11 -27 25 -40 18 -16 22 -25 13 -28 -7 -3 -2 -6 12 -6 20
-1 22 -3 10 -11 -13 -8 -13 -10 2 -10 9 0 22 -13 29 -29 7 -16 17 -27 21 -25
4 3 8 -2 8 -10 0 -9 8 -16 17 -16 9 0 13 -3 10 -6 -4 -4 3 -15 15 -25 11 -11
17 -19 12 -20 -5 0 2 -5 15 -10 16 -6 21 -14 17 -25 -6 -15 -4 -15 11 -3 15
12 16 12 10 -3 -4 -11 -2 -18 5 -18 9 0 9 -3 1 -11 -6 -6 -9 -18 -6 -25 3 -9
-1 -14 -12 -14 -9 0 -13 -5 -10 -10 4 -6 12 -7 18 -3 7 3 4 -3 -6 -14 -10 -11
-17 -24 -16 -29 3 -20 -2 -35 -10 -30 -5 4 -7 -3 -4 -14 3 -13 0 -20 -8 -20
-11 0 -11 -2 1 -10 11 -7 11 -10 2 -10 -7 0 -11 -4 -7 -9 3 -5 1 -12 -5 -16
-6 -4 -8 -11 -5 -16 4 -5 2 -9 -4 -9 -5 0 -8 -12 -5 -26 3 -18 1 -23 -7 -18
-9 5 -10 2 -6 -9 3 -10 2 -17 -4 -17 -6 0 -7 -4 -4 -10 3 -5 1 -10 -6 -10 -9
0 -9 -3 0 -14 9 -11 8 -17 -4 -29 -8 -9 -15 -20 -14 -24 3 -19 -2 -34 -10 -29
-5 4 -7 -4 -3 -16 3 -14 1 -19 -6 -14 -8 5 -10 1 -5 -9 3 -10 0 -21 -8 -26
-12 -7 -12 -9 1 -9 12 0 13 -2 1 -9 -7 -5 -14 -20 -13 -35 0 -14 -4 -23 -9
-20 -5 3 -6 -2 -3 -10 3 -9 1 -16 -4 -16 -6 0 -9 -9 -7 -20 2 -11 -1 -20 -7
-20 -6 0 -5 -6 2 -16 11 -12 11 -15 -1 -12 -9 2 -14 -5 -13 -20 0 -12 -3 -22
-7 -22 -5 0 -6 -7 -3 -15 3 -8 0 -17 -8 -20 -10 -4 -13 -15 -10 -32 4 -20 2
-24 -9 -18 -12 8 -12 6 0 -8 12 -15 12 -17 -3 -11 -12 5 -15 2 -10 -10 3 -9 1
-22 -5 -29 -6 -8 -9 -23 -6 -36 2 -12 0 -19 -4 -16 -5 3 -12 -2 -15 -11 -8
-22 -8 -26 4 -19 6 4 1 -10 -10 -30 -11 -20 -15 -33 -8 -29 6 4 3 -6 -8 -22
-11 -16 -19 -39 -18 -51 1 -13 -2 -23 -7 -23 -5 0 -5 -7 -2 -17 4 -10 2 -14
-5 -9 -7 4 -10 -1 -7 -13 2 -11 -3 -22 -10 -25 -8 -2 -12 -16 -11 -30 2 -14
-3 -34 -10 -43 -17 -23 -18 -46 -2 -38 7 4 6 1 -2 -7 -9 -7 -14 -22 -12 -32 3
-15 0 -17 -14 -12 -15 6 -16 4 -7 -5 6 -6 9 -19 6 -28 -3 -9 4 -4 14 12 11 15
23 24 26 20 4 -3 7 -1 7 6 0 7 4 9 10 6 6 -3 7 1 4 10 -5 11 0 18 15 22 11 3
21 12 21 20 0 10 6 13 16 9 8 -3 12 -2 9 4 -3 5 8 19 24 31 17 12 28 26 25 31
-3 4 1 8 9 8 8 0 18 7 21 16 3 8 11 12 17 8 8 -4 9 -3 5 4 -4 7 -2 12 4 12 6
0 8 5 5 10 -6 9 7 14 27 11 4 0 5 5 2 13 -3 8 0 17 7 22 8 4 10 3 5 -4 -4 -8
-2 -10 8 -6 8 3 12 12 9 20 -4 10 0 12 13 7 11 -4 15 -3 11 4 -4 6 9 23 28 38
19 16 32 32 29 37 -3 4 -1 8 4 8 5 0 9 8 9 18 0 35 3 43 15 36 8 -5 9 -2 5 11
-4 9 -2 24 4 31 6 8 9 20 5 29 -3 8 0 14 7 12 7 -1 11 6 9 17 -2 12 1 15 8 11
9 -6 9 -2 1 14 -7 12 -8 20 -2 19 5 -2 8 -1 8 2 -1 3 6 19 17 34 11 17 13 25
5 20 -11 -6 -11 -4 0 10 8 10 16 27 16 39 1 11 7 23 13 25 9 3 9 9 1 24 -8 15
-8 19 0 14 6 -4 11 -2 11 4 0 6 3 9 8 7 4 -3 8 11 8 30 1 19 7 39 14 43 7 4
10 12 6 18 -3 5 1 15 9 22 10 8 14 24 11 42 -4 24 -2 27 9 18 12 -10 13 -8 10
9 -2 12 1 21 6 21 6 0 7 5 4 10 -3 6 1 17 10 26 9 9 13 24 10 35 -4 11 -2 19
5 19 6 0 8 5 5 10 -3 6 -2 10 4 10 5 0 8 8 7 18 -2 9 5 26 16 37 17 17 18 17
12 2 -3 -10 -3 -17 2 -16 23 4 45 -2 39 -11 -3 -5 1 -10 11 -10 9 0 23 -8 31
-17 10 -12 12 -13 8 -3 -4 10 -2 9 8 -2 8 -10 19 -18 26 -18 6 0 11 -4 11 -9
0 -5 9 -13 20 -16 11 -4 18 -10 15 -14 -2 -5 7 -7 21 -5 20 2 24 -1 19 -14 -3
-9 -3 -13 1 -10 3 4 24 -4 46 -18 22 -14 37 -20 32 -12 -4 8 0 6 12 -3 10 -9
27 -15 37 -14 15 3 16 1 6 -11 -9 -12 -6 -14 20 -14 17 0 31 -5 31 -11 0 -5 4
-7 10 -4 6 3 10 1 10 -4 0 -6 5 -11 11 -11 5 0 7 4 4 10 -3 6 1 7 10 4 9 -4
14 -13 10 -22 -4 -12 -3 -13 10 -2 10 8 15 9 15 2 0 -6 7 -9 15 -6 9 4 15 0
15 -7 0 -12 2 -12 9 -1 7 11 9 11 14 -1 4 -10 16 -14 32 -13 14 2 28 -1 32 -7
4 -6 1 -7 -7 -2 -8 5 -11 4 -7 -3 4 -5 16 -8 27 -5 13 3 20 0 20 -8 0 -11 2
-11 10 1 7 12 12 12 29 -4 12 -11 21 -16 21 -11 0 4 6 2 13 -4 8 -6 17 -7 21
-3 4 4 15 -2 23 -13 12 -15 14 -16 10 -3 -4 12 -2 15 9 11 7 -3 14 -10 14 -17
0 -6 5 -4 10 4 6 9 10 10 10 3 0 -7 11 -10 29 -8 19 3 31 -1 35 -11 4 -9 11
-12 18 -7 19 11 38 13 38 3 0 -5 9 -7 20 -5 11 2 22 -1 26 -7 4 -7 10 -5 16 3
7 10 11 11 14 2 3 -7 12 -9 20 -6 8 3 14 -1 14 -8 0 -11 3 -11 10 1 9 13 10
13 10 0 0 -13 1 -13 10 0 7 11 10 11 10 2 0 -7 4 -10 10 -7 18 11 51 14 45 4
-4 -5 1 -9 10 -9 10 0 13 5 9 12 -5 7 -3 8 7 2 23 -14 51 -15 67 -2 13 10 14
10 8 0 -5 -8 -1 -11 16 -8 13 2 33 0 45 -5 16 -6 21 -5 17 5 -3 7 2 13 10 13
8 0 13 -4 11 -8 -6 -9 22 -6 31 4 4 4 14 1 22 -6 13 -10 14 -9 8 1 -6 9 -1 11
18 8 14 -3 28 0 32 5 3 5 10 7 15 3 5 -3 17 0 26 8 9 7 14 8 10 2 -4 -7 0 -15
9 -18 8 -3 12 -2 9 4 -3 6 -1 10 5 10 6 0 8 6 5 13 -4 6 1 3 9 -7 12 -15 16
-16 16 -5 0 11 10 15 35 14 20 -1 35 3 35 9 0 6 5 4 10 -4 6 -9 10 -11 10 -3
0 7 7 10 17 6 12 -5 14 -3 8 8 -7 12 -6 12 7 1 11 -9 18 -10 23 -2 3 6 10 8
15 5 5 -3 12 0 15 6 4 5 13 8 21 5 8 -3 14 -1 14 4 0 6 5 10 11 10 5 0 7 -6 4
-12 -4 -7 1 -4 9 6 9 11 16 16 16 12 0 -5 7 -3 15 4 12 10 15 10 15 -1 0 -8 5
-6 13 6 8 10 18 15 24 12 5 -3 22 1 37 8 16 8 32 13 36 10 4 -3 10 2 13 10 4
8 15 12 27 10 11 -2 20 0 20 5 0 5 6 7 14 4 8 -3 17 0 22 7 5 8 3 10 -6 4 -9
-6 -11 -4 -5 4 5 9 10 10 18 2 7 -7 15 -5 24 7 10 12 12 12 8 2 -4 -8 1 -6 9
4 9 11 16 16 16 11 0 -5 5 -4 12 3 7 7 20 12 31 12 10 0 15 5 12 10 -3 6 3 10
14 10 12 0 21 5 21 11 0 5 5 7 10 4 6 -3 10 -1 10 5 0 6 4 9 9 5 5 -3 13 4 16
16 6 17 9 18 16 8 6 -11 9 -10 15 4 5 13 10 15 19 7 10 -8 13 -6 11 7 -1 12 5
17 18 15 11 -2 15 1 11 7 -3 6 1 11 9 11 9 0 16 5 16 11 0 5 5 7 10 4 6 -3 10
-1 10 5 0 6 4 9 9 5 5 -3 16 4 25 16 16 24 52 19 43 -5 -3 -8 1 -17 9 -20 8
-3 14 -14 12 -23 -2 -10 2 -17 8 -16 6 1 11 -4 11 -12 0 -8 -5 -11 -11 -8 -6
3 -5 0 2 -8 6 -7 12 -24 12 -37 0 -13 4 -21 9 -17 5 3 12 1 16 -5 3 -5 1 -10
-6 -10 -8 0 -9 -3 0 -13 6 -8 8 -17 4 -20 -3 -4 -2 -7 4 -7 5 0 10 -6 10 -12
1 -23 8 -42 20 -55 6 -7 10 -24 9 -38 -2 -13 0 -22 4 -20 5 3 11 -2 14 -11 4
-10 2 -13 -7 -9 -6 4 -5 1 4 -7 9 -7 15 -21 13 -31 -1 -9 2 -15 7 -12 5 3 12
-12 15 -35 4 -22 10 -40 15 -40 5 0 9 -14 9 -31 0 -17 4 -28 10 -24 6 4 10 -8
10 -30 0 -22 4 -34 10 -30 9 5 14 -22 13 -63 -1 -9 3 -10 11 -3 9 8 12 3 10
-19 -1 -17 2 -30 8 -30 5 0 6 -4 3 -10 -3 -5 -1 -10 5 -10 6 0 8 -5 5 -10 -3
-6 -1 -10 4 -10 6 0 11 -5 11 -11 0 -15 26 -39 34 -32 3 4 6 -1 6 -11 0 -9 5
-14 10 -11 6 3 10 1 10 -5 0 -6 5 -8 13 -4 8 5 8 2 -2 -9 -12 -15 -11 -17 8
-17 11 0 21 -5 21 -12 0 -13 59 -68 73 -68 6 0 8 -3 4 -6 -8 -9 53 -74 70 -74
8 0 11 -4 8 -10 -3 -5 0 -10 8 -10 7 0 19 -10 26 -23 8 -16 22 -23 44 -24 18
-1 26 1 20 3 -7 3 -13 12 -13 20 0 8 -6 14 -12 14 -9 0 -9 3 1 9 12 8 12 12
-3 26 -10 10 -14 25 -11 36 4 11 2 19 -5 19 -6 0 -8 5 -5 10 4 6 1 17 -5 25
-6 8 -9 19 -5 25 3 5 1 10 -5 10 -6 0 -9 4 -6 9 3 5 0 14 -8 20 -7 6 -12 22
-10 36 1 14 -2 25 -8 25 -6 0 -8 9 -5 20 3 13 1 18 -6 13 -6 -4 -8 2 -4 16 3
15 0 24 -10 28 -12 5 -12 7 -1 14 10 7 10 9 1 9 -7 0 -13 9 -13 20 0 11 -6 20
-12 20 -9 0 -8 4 2 10 12 8 12 10 1 10 -11 0 -11 3 0 17 10 11 10 14 2 9 -12
-6 -18 5 -14 26 0 5 -4 8 -10 8 -6 0 -9 9 -6 20 3 10 0 21 -5 22 -6 2 -12 16
-14 31 -2 15 -6 38 -7 52 -2 14 -7 28 -12 33 -4 4 -5 1 0 -7 5 -9 4 -12 -3 -7
-6 4 -9 13 -5 21 3 9 -1 15 -8 15 -11 0 -11 3 1 10 11 7 11 10 2 10 -7 0 -11
4 -7 9 3 5 -2 17 -11 25 -11 12 -12 16 -2 16 10 0 9 3 -2 10 -8 5 -11 10 -6
10 4 0 1 11 -8 25 -15 23 -15 24 1 18 17 -5 17 -5 0 8 -10 8 -19 24 -20 37 0
12 -5 22 -10 22 -4 0 -6 4 -3 9 4 5 0 12 -6 14 -9 4 -9 6 -1 6 15 1 5 38 -12
45 -8 3 -11 13 -8 27 5 16 3 20 -6 14 -10 -6 -11 -3 -2 13 8 15 7 21 -3 25 -8
3 -13 16 -12 31 2 14 -3 31 -10 37 -7 6 -10 17 -7 25 3 8 -1 14 -8 14 -7 0 -9
3 -6 7 4 3 1 13 -6 21 -10 13 -9 15 3 8 8 -4 6 0 -4 8 -15 12 -16 16 -5 16 12
0 12 2 0 9 -7 5 -10 14 -7 20 4 6 3 11 -2 11 -5 0 -12 8 -14 18 -6 22 15 55
28 44 4 -4 2 2 -6 13 -8 11 -10 17 -6 13 5 -4 15 0 23 10 8 9 11 11 7 3 -5
-10 -3 -12 5 -7 7 5 10 15 7 23 -3 8 -1 11 4 8 6 -3 10 -1 10 5 0 6 4 8 10 5
6 -3 7 1 4 10 -4 10 -2 15 7 13 8 -2 13 3 12 10 -3 11 9 16 29 13 4 0 5 6 2
13 -3 8 4 19 16 26 11 6 18 15 15 20 -3 5 4 14 15 20 11 6 18 15 15 20 -3 5 4
14 15 20 11 6 20 16 20 23 0 7 9 23 20 35 11 12 20 28 20 35 0 8 10 22 23 31
12 9 15 14 7 11 -9 -4 -8 -1 3 8 10 9 18 18 18 21 -3 20 0 26 8 21 5 -3 12 -1
16 5 3 5 2 10 -4 10 -6 0 -8 7 -5 15 4 8 10 12 15 9 5 -3 12 8 15 25 4 18 11
28 17 24 5 -3 7 -1 4 5 -11 17 3 41 21 35 14 -4 14 -3 3 5 -12 8 -12 14 -3 25
7 7 9 17 5 20 -3 4 -1 7 5 7 7 0 12 11 12 25 0 14 7 28 15 31 8 4 12 10 9 15
-3 5 5 23 17 41 13 17 18 29 13 25 -6 -3 -11 0 -11 8 0 8 5 13 10 12 5 -1 13
8 18 21 6 17 6 21 -3 16 -12 -7 -5 9 16 35 15 19 17 43 3 34 -9 -5 -9 -3 -1 8
6 8 10 22 9 31 -2 10 2 15 9 12 7 -3 13 2 13 10 0 8 -5 12 -11 9 -6 -4 -5 0 1
8 7 9 11 25 8 37 -2 13 3 26 13 32 14 8 14 9 2 10 -12 0 -13 2 -1 9 8 5 12 19
9 34 -3 15 0 28 7 31 6 2 11 15 10 28 -1 12 2 29 8 36 7 9 5 11 -9 6 -16 -6
-17 -5 -6 7 6 7 12 34 12 60 0 26 5 51 10 54 6 3 10 12 10 18 0 7 -4 6 -10 -3
-8 -13 -10 -12 -10 3 0 9 6 17 13 17 8 0 7 4 -3 10 -13 9 -13 10 0 10 9 0 11
3 4 8 -12 8 -13 51 -1 70 5 7 4 12 -2 12 -6 0 -11 5 -11 11 0 5 5 7 10 4 13
-8 13 -3 0 31 -10 25 -9 26 6 13 16 -13 16 -12 5 9 -6 12 -9 27 -6 32 3 6 1
10 -6 10 -8 0 -8 4 1 15 9 10 9 15 1 15 -6 0 -11 9 -11 20 0 11 6 20 13 20 8
0 8 3 -2 9 -8 5 -12 18 -8 30 3 12 1 21 -3 21 -4 0 -6 10 -2 22 3 13 1 19 -6
15 -6 -4 -9 0 -7 10 2 10 4 18 5 18 8 0 6 36 -2 42 -7 4 -8 1 -3 -7 5 -8 4
-11 -3 -7 -16 10 -2 48 21 56 11 4 42 7 68 7 35 -1 45 2 38 11 -12 13 8 13 30
-1 10 -7 12 -5 6 3 -5 9 0 12 17 9 14 -1 33 4 43 12 17 14 18 13 11 -4 -6 -19
-6 -19 12 -3 22 20 36 22 27 5 -4 -7 -1 -6 7 2 7 8 24 14 37 12 16 -3 21 0 16
8 -6 9 -2 9 15 0 19 -10 22 -10 18 1 -4 11 5 14 38 13 24 -1 44 2 44 7 0 11
23 7 32 -6 5 -6 8 -3 8 6 0 11 8 15 24 14 13 -2 29 1 37 5 7 5 22 4 33 -2 18
-10 19 -9 8 4 -11 13 -8 15 18 12 17 -2 29 0 26 4 -7 12 38 10 46 -2 5 -7 8
-6 8 3 0 7 6 11 15 7 8 -3 15 -1 15 5 0 6 7 8 16 5 8 -3 13 -2 10 2 -2 4 14 8
37 8 23 1 43 7 45 13 3 9 7 9 18 0 8 -6 14 -7 14 -2 0 6 15 11 33 12 54 3 56
4 50 14 -4 6 0 8 10 4 11 -4 14 -2 10 9 -3 7 -15 14 -27 15 -11 0 -16 3 -9 6
13 5 -8 29 -60 70 -15 12 -28 24 -27 28 1 10 -27 34 -34 28 -3 -4 -6 -1 -6 6
0 13 -44 61 -56 61 -4 0 -22 16 -40 35 -17 19 -30 35 -27 35 2 0 -2 7 -11 15
-8 8 -20 15 -26 15 -7 0 -10 7 -7 14 4 10 1 13 -8 9 -8 -3 -17 2 -21 10 -5 15
-37 15 -74 0 -8 -3 -27 -6 -42 -7 -14 0 -30 -4 -34 -8 -4 -4 -13 -3 -20 3 -8
7 -14 6 -20 -2 -5 -8 -3 -9 6 -4 9 5 11 4 6 -4 -6 -9 -11 -9 -24 1 -10 9 -13
9 -9 1 5 -7 1 -12 -10 -12 -44 -1 -59 -4 -72 -15 -11 -8 -13 -8 -7 1 5 9 2 11
-8 7 -9 -3 -16 -11 -16 -16 0 -7 -5 -6 -13 1 -8 6 -17 8 -20 4 -4 -3 -19 -6
-34 -7 -19 -1 -27 -6 -25 -15 3 -12 0 -12 -12 -1 -10 7 -16 8 -16 2 0 -6 -11
-9 -24 -6 -14 2 -28 0 -31 -6 -4 -7 -14 -6 -28 2 -19 10 -20 9 -9 -4 10 -13 8
-15 -15 -12 -16 1 -41 -3 -56 -11 -15 -8 -35 -11 -43 -8 -8 3 -22 -1 -31 -8
-12 -10 -15 -10 -9 -1 9 14 5 15 -28 3 -22 -9 -24 -8 -21 10 2 11 -2 22 -10
26 -8 3 -12 9 -9 15 3 5 -2 18 -12 29 -10 11 -19 30 -21 42 -2 11 -8 24 -14
27 -5 4 -9 12 -7 18 2 6 -6 18 -17 27 -11 9 -13 13 -5 9 10 -5 9 -1 -3 14 -11
12 -16 26 -11 34 4 7 4 10 -1 6 -11 -10 -38 20 -29 33 5 8 3 9 -6 4 -10 -6
-12 -4 -7 8 6 16 -4 22 -27 18 -5 -1 -3 6 5 15 8 10 9 15 2 11 -11 -7 -60 60
-55 76 1 4 -5 7 -14 7 -8 0 -12 5 -9 10 3 6 1 10 -4 10 -6 0 -11 5 -11 11 0
15 -26 39 -34 32 -3 -4 -6 3 -6 15 0 12 -5 22 -11 22 -5 0 -7 5 -3 12 4 6 3 8
-3 5 -5 -3 -22 10 -39 30 -51 62 -65 74 -75 68 -5 -4 -9 -3 -8 2 3 20 -2 34
-11 28 -5 -3 -10 2 -10 11 0 10 -3 15 -6 11 -3 -3 -21 10 -40 29 -19 19 -39
34 -44 34 -6 0 -10 7 -10 16 0 8 -4 12 -10 9 -5 -3 -10 1 -10 10 0 9 -5 13
-10 10 -6 -3 -13 1 -16 9 -3 9 -10 14 -14 11 -5 -3 -13 3 -19 12 -6 10 -11 14
-11 8 0 -5 -7 1 -16 13 -8 12 -20 20 -25 17 -5 -4 -9 -1 -9 4 0 6 -6 11 -14
11 -8 0 -17 7 -20 16 -3 8 -10 12 -16 9 -5 -3 -10 -1 -10 5 0 6 -4 8 -10 5 -5
-3 -10 -1 -10 5 0 6 -13 16 -29 21 -16 6 -32 17 -35 25 -3 8 -12 14 -21 14 -8
0 -15 5 -15 10 0 6 -8 10 -19 10 -10 0 -24 7 -31 15 -8 9 -21 13 -32 9 -12 -4
-18 -1 -16 8 2 7 -3 12 -9 11 -7 -2 -13 1 -13 6 0 5 -7 12 -16 15 -9 3 -12 2
-8 -5 3 -6 -11 0 -32 14 -22 13 -49 23 -61 22 -17 -1 -20 2 -12 11 7 8 6 12
-3 11 -45 -1 -69 4 -62 15 5 8 2 9 -9 5 -10 -3 -17 -2 -17 3 0 6 -5 10 -11 10
-5 0 -7 -6 -4 -12 4 -7 0 -5 -8 4 -11 14 -16 15 -27 5 -10 -9 -11 -9 -6 1 5 8
-2 12 -21 13 -15 1 -32 1 -37 0 -5 -1 -4 4 2 11 9 11 6 14 -18 12 -17 -1 -30
2 -30 7 0 4 -7 5 -17 2 -11 -5 -14 -3 -8 6 6 10 3 11 -13 2 -15 -8 -23 -8 -27
0 -4 6 -13 8 -20 5 -8 -3 -16 0 -19 7 -3 9 -8 8 -15 -3 -10 -13 -15 -8 -12 13
0 4 -6 7 -14 7 -9 0 -15 10 -15 26 0 17 -4 23 -12 18 -10 -6 -10 -4 0 8 9 11
10 18 2 23 -5 3 -10 13 -10 21 0 9 -7 23 -16 31 -11 12 -12 18 -4 23 9 6 9 9
1 14 -6 4 -9 12 -6 17 4 5 1 9 -6 9 -7 0 -9 8 -6 21 4 15 2 19 -9 15 -11 -4
-12 -2 -5 13 7 13 6 24 -4 38 -8 11 -11 23 -8 27 3 3 1 6 -6 6 -9 0 -9 5 0 21
6 12 7 19 1 15 -16 -9 -28 16 -27 56 0 20 -3 34 -6 32 -9 -5 -19 21 -19 47 0
14 -4 18 -12 13 -9 -5 -9 -3 1 9 11 14 11 18 -2 23 -9 3 -13 13 -9 26 4 16 2
19 -9 13 -11 -7 -12 -6 -2 6 9 12 10 18 1 27 -6 6 -13 23 -14 38 -2 15 -8 30
-14 34 -6 4 -8 15 -4 25 6 14 4 16 -6 10 -10 -6 -12 -4 -7 8 3 10 3 17 -2 17
-5 0 -8 10 -7 23 0 12 -4 21 -10 20 -7 -1 -11 10 -10 27 1 17 -1 30 -6 30 -4
0 -4 7 -1 17 5 12 3 14 -7 8 -9 -6 -11 -4 -5 5 4 7 2 16 -6 21 -12 7 -11 9 1
9 13 1 13 2 0 13 -8 7 -15 18 -16 25 -3 38 -5 43 -15 36 -8 -4 -8 0 0 15 11
19 8 25 -10 23 -3 -1 -6 5 -6 13 0 8 5 11 11 8 6 -4 4 1 -4 12 -8 10 -14 26
-12 37 2 10 -2 18 -9 18 -6 0 -9 8 -7 18 3 11 0 19 -8 19 -7 0 -11 -4 -8 -8z
m14 -1510 c0 -11 5 -17 10 -14 9 5 14 -21 13 -62 -1 -7 3 -10 8 -7 5 3 9 -4 9
-16 0 -12 4 -18 10 -15 5 3 7 0 4 -8 -3 -8 2 -22 11 -31 9 -9 11 -16 5 -16 -7
0 -7 -7 2 -22 7 -13 11 -29 10 -35 -2 -7 1 -13 6 -13 6 0 13 -7 16 -16 3 -8 2
-12 -4 -9 -6 3 -10 1 -10 -4 0 -6 7 -11 15 -11 8 0 14 -3 14 -7 -4 -25 2 -53
11 -48 5 3 7 0 4 -8 -3 -8 4 -31 16 -51 11 -21 16 -35 10 -31 -6 3 -7 0 -4 -9
3 -9 10 -14 15 -11 4 3 6 -4 4 -15 -2 -11 3 -27 11 -35 12 -11 12 -15 2 -15
-10 0 -10 -2 -1 -8 7 -5 14 -20 15 -35 1 -16 7 -26 14 -23 7 3 9 -5 6 -20 -2
-14 0 -24 7 -24 6 0 11 -13 11 -30 0 -16 4 -30 9 -30 5 0 12 -7 15 -16 4 -10
2 -13 -7 -8 -6 4 -3 -3 8 -16 11 -13 14 -20 7 -16 -11 7 -11 4 0 -15 7 -13 17
-27 22 -30 5 -4 6 -14 3 -23 -4 -9 -2 -16 4 -16 6 0 7 -4 4 -10 -3 -5 -1 -10
4 -10 6 0 11 -11 11 -25 0 -14 4 -25 10 -25 5 0 7 -7 4 -15 -4 -8 -1 -15 5
-15 6 0 8 -7 5 -15 -4 -8 -1 -15 5 -15 6 0 11 -11 11 -25 0 -14 4 -25 9 -25 5
0 8 -8 7 -17 -2 -10 4 -24 13 -31 12 -10 13 -12 1 -6 -10 5 -9 1 4 -14 10 -12
16 -28 13 -36 -3 -8 -1 -16 5 -18 20 -7 -3 -30 -24 -25 -11 3 -21 0 -25 -9 -4
-12 -8 -12 -21 -2 -10 8 -13 8 -9 2 10 -16 -18 -25 -33 -11 -10 9 -11 9 -5 -2
6 -11 4 -13 -8 -8 -10 3 -17 2 -17 -4 0 -6 -8 -5 -21 2 -13 7 -19 7 -15 1 3
-6 2 -13 -4 -17 -5 -3 -10 -1 -10 6 0 9 -3 9 -14 0 -8 -6 -18 -11 -22 -10 -23
4 -35 -2 -28 -13 6 -10 4 -10 -7 0 -15 14 -33 16 -24 3 3 -6 -6 -8 -20 -5 -14
2 -25 0 -25 -5 0 -6 -6 -8 -14 -5 -8 3 -24 1 -35 -6 -16 -8 -21 -8 -22 2 0 10
-2 10 -6 0 -2 -6 -9 -10 -14 -6 -5 3 -9 1 -9 -4 0 -5 -14 -7 -30 -4 -26 4 -29
2 -24 -14 6 -18 6 -18 -8 0 -14 18 -15 18 -22 0 -6 -16 -9 -16 -16 -4 -6 8
-10 10 -10 4 0 -6 -10 -10 -22 -9 -13 1 -26 -3 -30 -9 -5 -7 -8 -6 -8 4 0 12
-2 13 -9 1 -5 -7 -27 -14 -49 -15 -22 0 -38 -4 -35 -8 2 -5 0 -8 -6 -8 -5 0
-12 6 -14 13 -3 6 -6 3 -6 -8 -1 -14 -4 -16 -13 -7 -8 8 -15 9 -25 1 -7 -7
-13 -8 -13 -3 0 5 -5 2 -10 -6 -6 -9 -10 -11 -10 -3 0 7 -7 10 -15 7 -8 -4
-12 -10 -9 -15 7 -12 -3 -11 -28 2 -16 9 -19 8 -13 -2 6 -9 3 -11 -8 -6 -9 3
-19 2 -23 -4 -4 -6 -11 -6 -21 2 -13 11 -13 14 3 26 13 10 14 13 3 13 -12 0
-12 2 1 10 8 5 11 12 7 16 -4 4 1 13 11 21 10 9 11 11 2 7 -13 -7 -13 -5 -1 9
7 9 10 17 5 17 -4 0 1 7 12 16 10 8 13 13 7 9 -7 -3 -13 -1 -13 5 0 6 7 13 15
16 8 4 12 10 9 15 -3 6 0 17 8 26 7 9 8 14 2 10 -6 -3 -11 0 -11 7 0 8 6 12
13 9 8 -3 11 4 10 21 -2 14 1 23 5 20 5 -3 10 3 11 13 0 10 2 25 2 33 1 8 7
14 14 13 6 -2 9 4 6 12 -4 9 0 15 7 15 12 0 12 2 0 9 -9 6 -10 11 -2 15 6 4 9
12 6 17 -4 5 0 9 8 9 9 0 13 9 12 25 -2 14 1 25 6 25 4 0 6 7 3 15 -4 8 -1 15
6 15 6 0 10 6 7 13 -2 6 3 18 12 25 12 10 13 12 1 6 -13 -7 -13 -5 -2 9 8 9
11 21 7 27 -3 5 -1 10 5 10 6 0 8 5 5 10 -3 6 -1 10 5 10 7 0 10 7 6 15 -3 8
-1 15 5 15 6 0 8 7 5 16 -4 10 -2 13 6 8 8 -5 9 -2 5 9 -4 10 -1 17 5 17 6 0
8 3 5 7 -4 3 -1 13 6 21 10 13 9 15 -3 8 -8 -4 -5 0 7 9 18 14 20 21 12 42 -8
21 -7 24 7 19 12 -4 15 -2 11 9 -4 8 -2 17 4 20 5 4 7 11 4 16 -4 5 -1 9 5 9
6 0 8 4 5 10 -3 5 2 22 12 37 10 15 12 24 6 20 -9 -6 -11 -3 -7 7 3 9 10 13
15 10 5 -3 6 2 3 10 -4 9 -1 16 6 16 10 0 9 4 0 16 -11 12 -11 15 1 12 10 -2
14 7 14 29 0 17 3 29 7 27 5 -3 8 0 8 6 0 6 3 9 8 7 4 -3 8 8 8 25 1 17 7 34
15 39 11 7 11 9 1 9 -10 0 -10 4 2 16 18 17 21 28 6 19 -6 -4 -5 4 1 19 7 14
15 23 19 21 4 -2 7 6 6 18 -1 12 4 31 11 43 7 11 10 24 6 27 -3 4 2 7 13 7 14
0 16 2 5 9 -9 6 -10 11 -2 15 6 4 11 16 11 27 0 11 5 17 10 14 6 -3 10 -15 10
-26z m-513 -69 c1 -11 -2 -18 -7 -15 -6 3 -7 -1 -4 -9 4 -9 1 -16 -6 -16 -9 0
-10 -3 -1 -13 6 -8 7 -17 3 -21 -4 -4 -7 -11 -7 -14 -1 -4 -6 -17 -13 -30 -7
-12 -10 -27 -7 -32 3 -6 1 -10 -5 -10 -6 0 -8 -4 -5 -10 3 -5 2 -10 -2 -10 -5
0 -10 -12 -11 -27 -1 -14 -10 -35 -20 -46 -10 -13 -11 -17 -3 -12 11 6 13 4 8
-9 -4 -10 -7 -22 -7 -27 0 -6 -4 -7 -10 -4 -6 4 -7 -1 -3 -11 3 -10 2 -15 -3
-12 -5 4 -9 -8 -9 -25 0 -22 -4 -31 -14 -29 -12 3 -12 0 -1 -12 9 -12 9 -16 1
-16 -8 0 -10 -8 -6 -22 6 -16 4 -20 -7 -16 -10 4 -13 -2 -12 -21 1 -39 -7 -62
-20 -54 -6 4 -4 -2 4 -12 8 -10 10 -16 4 -12 -16 9 -25 -18 -11 -32 8 -8 7
-11 -5 -11 -12 0 -15 -6 -10 -22 3 -13 1 -19 -5 -15 -6 4 -10 -1 -10 -11 0
-39 -4 -53 -12 -48 -5 3 -8 -8 -7 -24 2 -21 -2 -30 -13 -30 -9 0 -12 -3 -6 -8
16 -12 16 -32 0 -26 -11 5 -13 2 -9 -10 4 -10 -2 -26 -12 -39 -19 -21 -19 -21
0 -7 18 14 19 14 6 -10 -8 -14 -13 -28 -12 -32 1 -5 -4 -8 -11 -8 -8 0 -7 -4
3 -10 12 -8 12 -10 1 -10 -8 0 -11 -3 -8 -7 4 -3 -1 -15 -10 -26 -13 -15 -14
-18 -3 -12 12 7 13 6 4 -6 -6 -8 -10 -22 -9 -32 2 -9 0 -15 -5 -12 -4 3 -11
-2 -14 -11 -3 -8 -2 -13 3 -10 15 10 -1 -38 -18 -52 -13 -11 -13 -12 -1 -6 13
7 13 5 2 -8 -7 -8 -10 -22 -7 -30 3 -8 -1 -20 -9 -27 -8 -7 -12 -20 -9 -28 5
-12 3 -14 -7 -8 -9 5 -11 4 -6 -4 4 -6 2 -18 -4 -26 -6 -8 -9 -19 -5 -25 3 -5
2 -10 -4 -10 -6 0 -7 -7 -4 -17 4 -11 3 -14 -5 -9 -8 5 -10 2 -6 -8 4 -10 1
-16 -7 -16 -12 0 -12 -2 -1 -9 11 -6 10 -10 -3 -15 -14 -5 -15 -9 -6 -20 14
-17 6 -23 -31 -21 -15 0 -24 -3 -21 -9 4 -5 -1 -7 -10 -3 -10 3 -17 3 -17 -2
0 -5 -16 -7 -36 -5 -26 2 -34 0 -31 -10 3 -8 -2 -12 -16 -10 -12 1 -22 3 -22
4 0 1 -8 3 -18 5 -10 2 -14 -1 -10 -8 4 -6 0 -8 -10 -4 -9 3 -19 2 -23 -4 -3
-6 -12 -8 -20 -5 -8 3 -14 0 -14 -6 0 -7 -5 -6 -15 2 -8 7 -15 8 -15 3 0 -5
-6 -10 -12 -11 -50 -7 -63 -11 -60 -21 1 -7 -2 -10 -8 -6 -6 3 -8 11 -5 16 4
5 1 9 -4 9 -6 0 -11 -5 -11 -11 0 -5 -4 -7 -10 -4 -5 3 -10 1 -10 -6 0 -9 -3
-9 -14 0 -11 9 -16 9 -21 1 -4 -7 -20 -10 -36 -8 -22 3 -26 2 -18 -8 12 -14
-7 -14 -30 0 -9 6 -18 4 -25 -5 -6 -8 -19 -13 -30 -11 -13 3 -16 0 -10 -10 6
-10 5 -10 -9 1 -14 11 -17 11 -17 0 0 -11 -2 -11 -10 1 -7 12 -10 12 -10 1 0
-7 -6 -11 -14 -8 -8 3 -17 1 -20 -6 -5 -9 -7 -9 -12 1 -5 10 -9 10 -20 1 -12
-10 -17 -9 -27 1 -10 10 -9 11 3 5 9 -5 7 1 -5 15 -11 13 -14 20 -6 15 11 -6
13 -3 9 13 -4 13 -1 22 5 23 8 0 8 2 0 6 -9 3 -10 10 -4 21 5 9 7 29 5 44 -1
15 2 30 7 34 5 3 7 14 4 25 -4 10 -2 19 3 19 5 0 8 11 7 25 -2 14 1 27 5 30 5
3 6 13 3 22 -4 10 -2 14 4 10 8 -5 10 5 9 28 -2 20 1 38 7 42 6 4 7 1 2 -7 -5
-9 -4 -11 4 -6 8 5 9 12 2 19 -6 8 -5 19 5 31 8 11 14 28 14 38 0 10 6 18 13
19 9 0 9 2 0 6 -10 3 -9 10 2 27 8 12 16 32 18 44 2 12 9 28 15 34 7 7 12 18
12 26 0 8 5 10 13 6 8 -5 8 -2 -2 9 -11 15 -11 17 2 17 8 0 18 7 21 16 3 8 2
12 -4 9 -6 -3 -7 1 -4 9 3 9 10 13 15 10 5 -3 9 4 9 15 0 12 5 21 11 21 5 0 7
5 4 10 -3 6 -1 10 5 10 6 0 9 4 6 9 -3 5 1 11 9 14 8 4 12 15 10 26 -3 14 1
18 11 14 8 -3 14 -2 13 3 -4 21 3 35 34 65 17 18 25 29 17 25 -8 -4 -5 1 8 12
12 11 22 25 22 31 0 6 4 11 8 11 5 0 15 11 22 25 7 13 18 21 23 18 6 -4 8 0 4
11 -4 9 -3 15 1 12 4 -2 16 3 27 11 19 15 19 15 1 9 -16 -5 -17 -4 -6 9 7 8
16 12 21 9 8 -5 13 9 10 28 0 4 9 5 20 3 13 -3 19 0 16 8 -5 15 20 40 33 32 6
-4 7 1 3 12 -3 10 -3 15 1 11 9 -7 52 33 48 45 -1 5 2 6 8 2 5 -3 23 8 40 25
30 31 47 39 34 18 -4 -7 -4 -10 0 -6 4 3 8 10 9 15 1 16 27 34 38 27 8 -5 9
-3 4 6 -6 10 -4 12 8 7 12 -4 14 -2 10 10 -4 11 -2 14 5 9 7 -4 12 -2 12 4 0
7 7 9 17 6 10 -4 14 -4 10 0 -13 13 15 34 47 35 17 0 25 3 18 6 -6 2 -10 9 -7
13 3 5 12 7 20 3 8 -3 15 0 15 7 0 6 5 8 10 5 6 -3 13 1 16 10 5 12 9 13 21 4
8 -7 13 -8 11 -3 -2 5 1 10 5 11 4 1 15 9 23 18 14 14 36 20 58 16 5 -1 5 6 2
16 -6 14 -4 15 5 6 9 -9 15 -8 26 3 8 8 19 12 24 9 5 -4 9 -2 9 4 0 6 7 8 15
5 8 -4 15 -1 15 5 0 6 5 11 11 11 5 0 7 -6 3 -12 -5 -7 3 -5 16 4 32 22 35 22
37 -2z m1052 -4 c12 -8 13 -8 7 2 -7 11 -4 11 12 1 12 -7 18 -18 14 -24 -3 -5
2 -4 11 4 9 7 17 9 17 4 0 -5 10 -9 22 -10 11 -1 24 -7 28 -14 4 -6 13 -8 19
-5 6 4 11 0 11 -10 0 -11 6 -15 19 -11 12 3 22 -1 25 -9 3 -8 17 -14 31 -14
14 0 25 -4 25 -10 0 -5 7 -10 16 -10 9 0 12 -5 8 -12 -5 -8 -2 -9 9 -5 9 3 19
2 22 -4 4 -5 10 -7 15 -4 4 3 14 -3 21 -13 13 -16 13 -16 -6 -2 -19 14 -19 14
-6 -3 8 -10 20 -16 27 -13 7 3 15 -2 18 -10 3 -9 10 -12 16 -9 6 3 13 -1 16
-9 3 -9 10 -14 14 -11 5 3 15 -4 23 -15 7 -11 17 -17 20 -13 4 3 7 -2 7 -13 0
-16 2 -17 10 -4 8 13 10 12 10 -2 0 -16 11 -22 32 -19 4 0 5 -9 3 -20 -4 -18
-2 -19 12 -7 10 7 14 8 10 1 -4 -7 5 -16 23 -25 16 -7 30 -16 30 -20 0 -13 38
-47 44 -40 3 3 6 -2 6 -11 0 -8 9 -19 20 -22 11 -3 20 -12 20 -18 0 -7 9 -19
20 -27 11 -8 20 -18 20 -22 0 -15 34 -48 50 -48 11 0 12 -2 2 -8 -9 -6 -5 -14
14 -31 14 -12 23 -29 20 -36 -3 -9 0 -12 9 -9 7 3 16 -3 20 -15 3 -12 12 -21
18 -21 7 0 6 -4 -3 -10 -13 -8 -13 -10 2 -10 9 0 20 -9 23 -20 3 -11 11 -20
16 -20 5 0 8 -3 7 -7 -1 -5 5 -22 15 -39 9 -17 13 -35 9 -39 -4 -5 1 -5 11 -2
11 4 17 2 16 -6 -3 -23 1 -38 9 -33 4 2 8 -3 8 -13 0 -16 -11 -19 -68 -22 -10
0 -18 -5 -18 -11 0 -7 -5 -6 -14 1 -10 9 -16 9 -21 1 -4 -6 -14 -9 -22 -6 -9
4 -11 2 -7 -6 5 -7 0 -9 -14 -6 -11 3 -31 -1 -43 -10 -12 -8 -19 -10 -15 -4 4
7 3 12 -3 12 -5 0 -13 -5 -16 -10 -5 -8 -12 -7 -23 2 -9 8 -13 8 -9 2 4 -7 0
-15 -9 -18 -8 -3 -12 -2 -9 4 3 5 -7 3 -22 -5 -34 -18 -47 -19 -37 -2 5 7 0 6
-10 -3 -10 -8 -30 -15 -45 -16 -47 -2 -52 -4 -45 -16 6 -10 4 -10 -7 0 -15 14
-33 16 -24 3 3 -6 -6 -8 -20 -5 -16 3 -25 0 -25 -8 0 -9 -3 -8 -10 2 -7 11
-10 11 -10 2 0 -7 -4 -10 -10 -7 -5 3 -10 2 -10 -4 0 -5 -16 -8 -35 -7 -22 3
-41 -2 -50 -11 -10 -10 -15 -11 -15 -2 0 8 -3 9 -13 0 -17 -14 -27 -4 -27 26
0 13 -5 23 -11 23 -5 0 -7 5 -4 10 3 6 2 10 -2 10 -5 0 -9 12 -9 28 1 15 -4
26 -10 25 -7 -1 -10 6 -7 17 3 11 0 27 -7 35 -6 8 -9 18 -6 24 3 5 -1 12 -9
15 -12 4 -13 10 -6 25 8 14 7 20 -3 24 -7 3 -13 16 -12 29 1 13 -4 31 -12 41
-9 9 -12 17 -7 17 4 0 2 6 -4 14 -9 11 -9 16 0 22 8 5 4 13 -12 26 -13 11 -18
17 -10 13 9 -5 8 0 -3 18 -13 20 -14 26 -4 30 9 4 8 6 -3 6 -11 1 -15 9 -14
26 2 13 -3 29 -11 36 -17 14 -19 43 -1 34 6 -4 5 -1 -3 7 -9 7 -16 24 -16 38
0 14 -5 24 -11 23 -5 -1 -9 11 -8 28 1 16 -2 29 -7 29 -4 0 -8 7 -8 15 0 8 -6
15 -12 16 -10 0 -10 2 0 6 10 4 9 10 -5 26 -10 11 -12 17 -5 13 17 -10 15 9
-3 28 -9 8 -12 22 -8 32 4 12 3 15 -5 10 -8 -5 -10 -2 -6 8 3 9 2 16 -2 16 -5
0 -10 12 -11 26 0 15 -7 30 -15 35 -10 7 -10 9 2 9 13 0 13 1 0 10 -8 5 -12
10 -7 10 4 0 1 13 -7 29 -15 28 -15 29 7 24 12 -3 28 -11 36 -17z m1102 -1289
c17 5 18 3 9 -21 -7 -20 -7 -25 1 -20 8 5 10 -4 7 -29 -2 -20 -1 -34 3 -31 4
2 10 0 14 -6 3 -5 3 -10 -2 -10 -4 0 -8 -11 -8 -25 0 -14 4 -25 9 -25 5 0 3
-7 -4 -15 -7 -8 -8 -15 -3 -15 13 0 11 -43 -2 -52 -6 -5 -6 -8 1 -8 6 0 11
-14 12 -30 0 -20 -3 -28 -10 -24 -7 5 -8 2 -2 -7 12 -19 11 -62 -1 -71 -6 -5
-5 -8 3 -8 10 0 10 -5 2 -20 -7 -13 -7 -20 -1 -20 6 0 8 -7 5 -15 -4 -8 -9
-13 -14 -10 -9 6 -5 -39 6 -56 5 -8 3 -9 -6 -4 -9 6 -10 2 -5 -15 5 -17 4 -21
-5 -15 -9 5 -11 4 -6 -3 4 -7 9 -21 11 -33 4 -17 2 -19 -11 -8 -13 10 -13 8
-5 -14 7 -18 7 -28 -1 -33 -7 -5 -8 -3 -3 6 5 9 4 11 -4 6 -9 -6 -9 -11 -1
-21 7 -8 7 -16 1 -19 -5 -3 -8 -19 -7 -35 1 -16 -3 -29 -8 -28 -10 2 -12 -3
-15 -46 -1 -12 -5 -16 -13 -11 -9 5 -9 2 1 -9 9 -12 10 -17 2 -17 -7 0 -11 -8
-9 -17 2 -11 -2 -17 -11 -15 -12 3 -12 1 0 -14 9 -12 9 -15 2 -10 -12 6 -18
-11 -14 -36 0 -5 -4 -8 -10 -8 -5 0 -7 -4 -4 -10 3 -5 1 -10 -6 -10 -6 0 -9
-8 -6 -20 3 -11 1 -18 -4 -15 -4 3 -11 -6 -15 -20 -3 -14 -10 -25 -15 -25 -5
0 -8 -3 -8 -7 3 -15 -23 -73 -32 -73 -5 0 -9 -7 -9 -15 0 -8 -4 -15 -8 -15 -5
0 -17 -19 -27 -42 -10 -24 -28 -51 -39 -61 -12 -10 -14 -15 -6 -12 8 4 -1 -7
-20 -25 -19 -18 -28 -29 -20 -24 13 7 13 6 1 -9 -8 -10 -15 -16 -16 -15 -12
14 -34 69 -26 64 7 -4 8 -1 5 8 -3 9 -11 13 -17 9 -6 -4 -7 -1 -2 7 4 7 2 16
-6 21 -11 7 -11 9 -1 9 7 0 10 5 7 10 -4 6 -10 8 -15 5 -4 -3 -4 11 0 31 7 31
6 33 -8 22 -13 -11 -15 -10 -10 9 4 13 0 27 -8 34 -8 6 -14 17 -14 23 0 6 5 4
10 -4 5 -8 10 -10 10 -4 0 6 -6 17 -14 23 -8 7 -12 21 -9 31 3 11 1 20 -5 20
-5 0 -13 7 -16 16 -4 10 -2 13 7 8 8 -5 7 -2 -2 9 -7 9 -10 17 -6 17 4 0 2 6
-4 13 -6 8 -7 18 -3 22 4 5 -2 5 -12 1 -16 -6 -17 -4 -6 10 11 12 11 17 1 23
-7 5 -12 11 -12 15 4 25 0 46 -8 42 -5 -3 -9 0 -8 7 1 34 -4 58 -11 53 -5 -3
-9 1 -9 9 0 8 5 11 11 8 6 -4 5 1 -3 10 -7 9 -11 23 -8 31 4 11 1 13 -11 9
-15 -6 -16 -5 -2 12 8 10 10 16 3 12 -6 -4 -14 -3 -18 3 -3 5 -2 10 4 10 5 0
2 15 -7 33 -9 17 -15 40 -14 50 2 9 -2 17 -9 17 -8 0 -8 4 1 15 11 13 10 14
-3 9 -12 -4 -14 -1 -10 17 4 14 2 20 -4 16 -6 -4 -9 4 -7 19 1 15 -4 28 -13
31 -12 5 -12 7 -1 14 11 7 11 9 -1 9 -11 0 -11 3 0 17 10 12 10 15 1 9 -15 -9
-30 26 -26 61 1 13 -3 23 -11 23 -7 0 -12 8 -12 18 0 39 -3 53 -12 48 -4 -3
-7 10 -6 30 1 19 -3 38 -8 41 -6 4 -7 1 -2 -7 5 -9 4 -11 -4 -6 -9 6 -9 11 1
24 11 13 10 15 -4 9 -11 -4 -15 -2 -12 6 6 15 44 40 44 29 0 -5 7 -9 15 -9 8
0 12 4 9 9 -5 8 16 12 50 8 10 -1 16 2 13 7 -4 5 4 9 16 8 12 -1 28 3 36 9 10
7 13 8 8 0 -3 -6 0 -11 8 -11 8 0 12 4 9 9 -4 7 32 12 74 11 6 -1 12 3 12 8 0
6 10 4 23 -2 19 -11 20 -10 10 2 -10 12 -8 15 7 15 10 0 16 -5 12 -11 -3 -5 2
-4 11 3 9 8 21 11 27 7 5 -3 10 0 10 7 0 9 3 9 10 -2 8 -13 14 -8 12 11 -1 3
5 6 13 6 8 0 12 -5 8 -10 -3 -5 4 -4 16 2 11 7 21 9 21 6 0 -4 6 -3 13 2 6 4
20 6 31 4 10 -1 16 1 13 7 -4 5 0 9 8 9 8 0 15 -5 15 -11 0 -6 4 -5 9 3 5 8
16 11 24 8 9 -3 18 1 21 8 3 8 12 12 21 9 8 -3 12 -11 8 -17 -3 -6 -1 -7 6 -3
6 4 8 12 5 18 -5 7 -1 9 9 5 10 -4 17 -1 18 6 0 8 2 9 5 1 3 -7 14 -10 25 -7z
m-1074 -203 c-3 -4 4 -15 16 -26 12 -11 15 -16 7 -12 -13 7 -13 5 -2 -9 8 -9
10 -22 6 -28 -4 -7 -3 -9 4 -5 6 3 13 2 17 -4 3 -5 1 -10 -6 -10 -8 0 -8 -4 1
-15 7 -8 10 -21 6 -30 -3 -8 0 -14 6 -12 5 1 12 -5 14 -13 1 -8 5 -26 8 -39 3
-13 12 -34 21 -48 9 -13 13 -28 10 -33 -3 -6 -1 -10 4 -10 6 0 10 -3 9 -7 -1
-9 9 -40 23 -67 7 -13 7 -16 0 -11 -16 9 -14 -4 3 -20 7 -8 16 -12 19 -9 3 3
4 -2 2 -13 -2 -10 -4 -18 -5 -18 -1 0 -3 -8 -5 -17 -2 -10 2 -15 10 -12 7 3
16 0 21 -7 5 -8 3 -10 -7 -4 -8 5 -5 -1 5 -13 12 -14 14 -22 7 -22 -7 0 -9 -5
-6 -10 4 -6 10 -8 14 -6 4 3 7 -10 6 -29 0 -23 4 -35 12 -35 7 0 13 -9 13 -20
0 -11 6 -20 13 -20 8 0 7 -4 -3 -10 -12 -8 -12 -10 -1 -10 8 0 11 -3 8 -7 -4
-3 0 -17 9 -31 11 -17 12 -22 3 -17 -8 5 -5 -1 5 -13 11 -12 16 -22 13 -22 -3
0 -1 -13 4 -30 6 -16 15 -30 21 -30 5 0 6 -4 3 -10 -3 -5 0 -20 7 -32 6 -13
11 -31 9 -41 -1 -9 5 -20 14 -23 13 -6 14 -8 3 -15 -11 -7 -11 -9 1 -9 8 0 11
-6 7 -15 -3 -9 1 -18 9 -21 8 -4 15 -10 15 -16 0 -5 -6 -6 -12 -2 -7 4 -5 -1
4 -12 14 -16 15 -23 5 -33 -9 -10 -8 -11 6 -6 14 6 17 2 17 -25 0 -21 4 -29
12 -24 8 5 9 2 5 -9 -3 -10 -2 -17 2 -17 5 0 8 -8 7 -17 -2 -10 3 -24 11 -31
7 -8 11 -17 8 -22 -3 -5 -1 -11 5 -15 6 -4 8 -11 4 -16 -3 -6 2 -17 12 -25 11
-9 12 -12 4 -8 -13 7 -13 5 -1 -9 7 -9 10 -17 7 -17 -4 0 0 -10 8 -22 9 -12
16 -33 16 -46 0 -15 4 -21 12 -16 7 4 8 3 4 -4 -4 -7 -14 -12 -22 -12 -8 0
-12 -4 -9 -10 6 -9 -7 -14 -27 -11 -4 0 -5 -5 -2 -13 3 -8 0 -17 -7 -22 -8 -5
-10 -3 -4 5 5 9 1 9 -14 -1 -12 -7 -21 -18 -21 -25 0 -7 -4 -14 -10 -14 -5 -1
-15 -2 -20 -3 -6 0 -15 -7 -19 -15 -5 -7 -14 -10 -20 -7 -6 4 -11 0 -11 -9 0
-9 -4 -14 -9 -11 -5 3 -12 -1 -15 -10 -3 -9 -13 -14 -20 -11 -8 3 -17 -1 -20
-9 -3 -8 -15 -14 -26 -14 -11 0 -23 -6 -26 -14 -3 -8 -15 -13 -26 -11 -14 3
-18 0 -14 -11 3 -8 2 -12 -3 -9 -5 3 -16 -4 -24 -16 -11 -14 -16 -17 -19 -7
-4 10 -8 11 -20 1 -8 -7 -18 -10 -21 -6 -4 3 -7 2 -7 -4 0 -10 -46 -28 -62
-25 -5 1 -8 -3 -8 -9 0 -5 -4 -7 -10 -4 -5 3 -10 2 -10 -2 0 -5 -8 -9 -17 -10
-36 -3 -55 -10 -64 -24 -7 -11 -9 -11 -9 0 0 10 -3 11 -13 2 -8 -6 -17 -8 -20
-4 -4 3 -7 1 -7 -6 0 -7 -4 -9 -10 -6 -5 3 -19 1 -31 -6 -17 -9 -20 -8 -13 3
5 9 2 9 -12 -2 -11 -9 -39 -15 -71 -15 -43 0 -49 -2 -40 -14 10 -12 9 -12 -10
-2 -13 6 -23 8 -23 3 0 -5 -12 -8 -27 -6 -15 1 -31 -3 -35 -9 -6 -9 -8 -9 -8
1 0 7 -5 10 -11 6 -18 -11 -149 -10 -150 1 0 6 -4 1 -9 -10 -5 -11 -9 -14 -9
-7 -1 7 -5 10 -11 7 -5 -3 -10 -1 -10 5 0 6 -5 8 -12 4 -18 -11 -48 -12 -48
-2 0 5 -9 4 -20 -2 -14 -8 -20 -8 -20 0 0 7 -8 9 -20 5 -13 -4 -20 -2 -20 7 0
8 -3 9 -8 3 -4 -6 -13 -10 -19 -9 -7 1 -18 2 -24 3 -5 0 -7 7 -3 14 5 8 2 8
-9 -2 -9 -7 -17 -9 -17 -4 0 5 -15 9 -32 9 -18 0 -32 5 -31 10 1 6 -4 11 -12
11 -7 0 -11 -7 -8 -16 4 -14 3 -14 -9 0 -8 9 -28 15 -51 15 -20 -1 -37 4 -37
10 0 6 -6 11 -12 12 -15 0 -38 6 -85 21 -17 5 -34 7 -36 4 -3 -2 -8 1 -13 8
-5 8 -3 10 6 4 9 -5 11 -4 6 4 -4 7 -15 11 -24 10 -31 -3 -43 1 -37 11 3 6 -1
7 -9 4 -9 -3 -16 -1 -16 4 0 6 -9 9 -20 7 -11 -2 -18 0 -15 5 3 5 1 11 -5 15
-5 3 -10 1 -10 -6 0 -7 -9 -2 -20 11 -11 13 -20 20 -20 16 0 -4 -10 -1 -22 6
-13 7 -29 11 -37 9 -7 -1 -10 2 -7 8 4 5 -3 15 -14 21 -11 6 -20 8 -20 4 0 -4
-8 3 -19 14 -10 12 -21 19 -25 15 -3 -3 -6 -1 -6 6 0 8 -6 11 -16 7 -13 -5
-15 -2 -11 14 4 17 3 19 -9 9 -11 -9 -14 -9 -14 0 0 7 -5 9 -12 5 -6 -4 -8 -3
-5 3 4 6 -1 17 -10 24 -14 12 -16 12 -9 -1 5 -8 -3 -3 -16 12 -14 15 -28 25
-32 21 -3 -3 -6 2 -6 13 0 14 -2 16 -9 6 -6 -10 -10 -7 -13 12 -3 14 -1 26 5
26 5 0 4 6 -2 14 -9 11 -9 16 0 22 8 5 9 3 4 -6 -5 -9 -4 -11 3 -6 7 4 12 18
12 32 0 14 5 35 12 47 7 12 13 29 14 37 2 8 7 16 13 18 5 2 7 10 4 19 -4 10
-2 14 4 10 6 -4 9 3 7 18 -1 14 1 23 6 20 4 -3 10 2 13 9 3 8 1 17 -6 20 -8 3
-7 8 5 16 10 6 15 17 11 27 -4 9 -2 14 3 11 5 -4 10 5 11 19 0 14 7 29 13 33
7 5 10 15 7 24 -4 10 -1 19 8 22 8 4 13 10 10 14 -3 5 -1 11 5 15 6 4 8 11 4
16 -3 5 -1 16 5 23 6 7 12 22 14 33 2 12 9 29 17 39 13 16 13 17 0 10 -8 -4
-6 0 4 8 11 9 14 16 7 16 -7 0 -9 5 -6 10 4 6 10 8 14 6 4 -3 6 9 5 25 -2 23
1 29 12 25 9 -3 12 -1 9 5 -4 5 -3 18 1 27 7 18 10 27 12 50 1 7 5 11 10 8 4
-2 8 10 9 26 0 17 8 35 17 40 13 8 15 13 5 24 -9 11 -8 15 5 20 9 3 14 9 11
13 -2 4 2 20 10 35 8 14 10 24 5 21 -6 -4 -10 -1 -10 4 0 6 7 11 16 11 8 0 12
5 8 11 -3 6 0 15 7 20 11 7 11 9 1 9 -7 0 -10 5 -7 10 4 6 10 8 15 5 5 -3 7 3
5 14 -4 21 15 71 28 71 4 0 7 6 7 14 0 9 7 13 20 11 11 -2 24 3 30 13 8 15 9
15 10 1 0 -9 6 -16 14 -16 8 0 12 5 10 12 -3 7 6 10 26 9 16 -1 30 2 30 6 0
10 20 8 38 -4 9 -5 15 -1 19 13 3 11 9 18 14 15 5 -3 6 -11 2 -17 -3 -7 2 -4
13 5 12 11 28 15 42 11 13 -3 22 -1 22 6 0 6 5 11 11 11 5 0 8 -4 4 -9 -3 -5
0 -13 6 -17 7 -4 10 -3 7 2 -9 14 14 29 42 29 14 0 33 3 43 8 10 5 35 10 55
13 51 5 65 8 80 18 7 4 20 2 29 -6 12 -9 15 -9 9 0 -5 8 0 12 14 12 12 0 31 5
42 11 16 9 19 8 12 -3 -6 -11 -5 -11 8 0 13 10 17 10 21 0 4 -9 6 -7 6 4 1 11
7 15 23 10 16 -4 19 -2 13 9 -7 11 -6 12 6 3 18 -13 45 -12 42 2 -1 6 14 10
38 8 28 -2 42 2 49 14 8 15 10 15 10 -3 1 -12 4 -15 7 -7 4 9 8 10 18 2 10 -8
15 -8 21 1 4 8 3 9 -4 5 -7 -4 -12 -2 -12 4 0 6 8 10 18 8 9 -1 23 1 31 6 11
7 12 6 6 -5 -8 -12 -6 -12 8 -1 9 8 21 11 27 7 5 -3 10 -2 10 2 0 5 8 9 18 10
70 4 115 12 121 21 4 7 12 8 21 2 8 -5 19 -5 25 -1 5 5 24 13 40 19 37 13 40
13 32 6z m-1703 -347 c13 13 35 11 48 -5 10 -12 10 -14 1 -8 -9 5 -13 1 -14
-11 -1 -36 -8 -58 -19 -61 -7 -3 -7 -9 2 -20 11 -13 11 -14 -1 -7 -11 6 -13 4
-8 -8 3 -10 2 -17 -3 -17 -6 0 -9 -3 -9 -7 3 -18 -2 -34 -8 -30 -5 3 -9 -8
-10 -24 -3 -47 -6 -59 -14 -59 -4 0 -6 -9 -4 -20 2 -12 -2 -23 -11 -27 -12 -4
-12 -8 -2 -21 10 -12 10 -14 1 -8 -9 5 -13 -2 -13 -24 0 -17 -4 -29 -9 -26 -4
3 -8 -5 -7 -17 1 -12 -5 -28 -14 -35 -10 -10 -11 -11 -1 -6 10 5 12 3 5 -7 -9
-14 -13 -30 -16 -62 -1 -10 -7 -16 -14 -13 -7 3 -9 -5 -6 -20 2 -13 -1 -31 -8
-39 -6 -8 -9 -19 -5 -25 3 -5 1 -10 -5 -10 -6 0 -9 -4 -5 -10 3 -5 1 -17 -4
-27 -16 -30 -24 -57 -22 -72 1 -7 -2 -10 -8 -6 -6 3 -9 0 -5 -8 3 -8 -2 -17
-11 -21 -9 -3 -13 -2 -10 4 3 6 1 10 -5 10 -6 0 -8 5 -5 10 3 6 0 10 -7 10 -7
0 -22 13 -33 28 -18 25 -18 26 0 12 17 -14 17 -14 4 7 -7 12 -15 20 -18 18 -6
-7 -39 59 -34 68 2 4 -6 7 -18 7 -16 0 -19 3 -11 13 9 10 6 17 -8 27 -22 16
-27 35 -7 25 6 -3 2 2 -10 11 -13 9 -23 26 -23 38 0 12 -9 27 -20 34 -12 7
-19 16 -16 21 3 4 -1 20 -9 35 -10 18 -11 25 -2 21 7 -4 5 -1 -4 7 -9 7 -15
25 -15 39 1 21 -3 26 -16 24 -12 -3 -16 0 -11 8 11 18 12 38 1 31 -5 -3 -8 2
-6 12 2 11 -2 18 -9 17 -9 -2 -10 4 -4 20 10 27 3 50 -12 40 -7 -4 -6 1 2 11
8 9 10 16 5 14 -5 -2 -9 2 -9 7 0 6 4 9 8 7 4 -1 2 8 -4 20 -11 20 -10 21 3
11 10 -9 18 -9 25 -2 6 6 27 11 47 11 24 0 34 4 29 12 -4 6 2 4 12 -4 11 -9
16 -10 11 -2 -5 8 0 12 16 13 71 4 83 6 81 15 -1 5 14 9 32 8 18 -1 45 4 59
11 22 12 24 11 20 -3 -5 -15 -4 -15 9 1 18 22 28 22 20 0 -5 -13 -1 -12 17 5
14 13 26 18 28 13 2 -6 15 -3 30 7 14 9 23 11 19 5 -5 -9 -2 -13 8 -13 12 0
15 5 11 16 -5 13 -4 14 7 6 8 -7 17 -9 21 -5z m-713 -644 c13 -16 12 -17 -3
-4 -10 7 -18 15 -18 17 0 8 8 3 21 -13z m3574 -1753 c10 -11 16 -20 13 -20 -3
0 -13 9 -23 20 -10 11 -16 20 -13 20 3 0 13 -9 23 -20z"/>
<path d="M1455 3480 c-3 -5 -1 -10 4 -10 6 0 11 5 11 10 0 6 -2 10 -4 10 -3 0
-8 -4 -11 -10z"/>
<path d="M2135 3280 c-3 -5 -1 -10 4 -10 6 0 11 5 11 10 0 6 -2 10 -4 10 -3 0
-8 -4 -11 -10z"/>
<path d="M4856 3718 c3 -5 10 -6 15 -3 13 9 11 12 -6 12 -8 0 -12 -4 -9 -9z"/>
<path d="M4990 3640 c0 -5 5 -10 11 -10 5 0 7 5 4 10 -3 6 -8 10 -11 10 -2 0
-4 -4 -4 -10z"/>
<path d="M5060 3190 c-9 -6 -10 -10 -3 -10 6 0 15 5 18 10 8 12 4 12 -15 0z"/>
<path d="M590 2759 c0 -5 5 -7 10 -4 6 3 10 8 10 11 0 2 -4 4 -10 4 -5 0 -10
-5 -10 -11z"/>
<path d="M4835 40 c27 -12 35 -12 35 0 0 6 -12 10 -27 9 -25 0 -26 -1 -8 -9z"/>
</g>
</svg>
